<svg width="102" height="101" viewBox="0 0 102 101" fill="none" xmlns="http://www.w3.org/2000/svg">
<path fill-rule="evenodd" clip-rule="evenodd" d="M24.8108 50.5001C24.8108 36.1778 36.536 24.5676 51.0001 24.5676C65.464 24.5676 77.1892 36.1778 77.1892 50.5001C77.1892 64.8222 65.464 76.4324 51.0001 76.4324C36.536 76.4324 24.8108 64.8222 24.8108 50.5001ZM51.0001 67.3333C41.6111 67.3333 34 59.7968 34 50.5001C34 41.2032 41.6111 33.6667 51.0001 33.6667C60.3889 33.6667 68 41.2032 68 50.5001C68 59.7968 60.3889 67.3333 51.0001 67.3333Z" fill="white"/>
<path d="M78.2239 29.6029C81.6039 29.6029 84.344 26.8899 84.344 23.543C84.344 20.1962 81.6039 17.4829 78.2239 17.4829C74.844 17.4829 72.104 20.1962 72.104 23.543C72.104 26.8899 74.844 29.6029 78.2239 29.6029Z" fill="white"/>
<path fill-rule="evenodd" clip-rule="evenodd" d="M51.0001 0C37.1492 0 35.4125 0.0581334 29.9728 0.303897C24.5444 0.54906 20.837 1.40282 17.5931 2.65128C14.2394 3.94165 11.3952 5.66841 8.55977 8.47585C5.72453 11.2835 3.98067 14.0998 2.67754 17.4206C1.41671 20.6328 0.554496 24.3038 0.306906 29.6789C0.058709 35.0653 0 36.785 0 50.5001C0 64.215 0.058709 65.9347 0.306906 71.3211C0.554496 76.6962 1.41671 80.3672 2.67754 83.5794C3.98067 86.9002 5.72453 89.7165 8.55977 92.5242C11.3952 95.3316 14.2394 97.0584 17.5931 98.3489C20.837 99.5972 24.5444 100.451 29.9728 100.696C35.4125 100.942 37.1492 101 51.0001 101C64.8508 101 66.5875 100.942 72.0272 100.696C77.4556 100.451 81.163 99.5972 84.4069 98.3489C87.7606 97.0584 90.6048 95.3316 93.4402 92.5242C96.2755 89.7165 98.0193 86.9002 99.3227 83.5794C100.583 80.3672 101.445 76.6962 101.693 71.3211C101.941 65.9347 102 64.215 102 50.5001C102 36.785 101.941 35.0653 101.693 29.6789C101.445 24.3038 100.583 20.6328 99.3227 17.4206C98.0193 14.0998 96.2755 11.2835 93.4402 8.47585C90.6048 5.66841 87.7606 3.94165 84.4069 2.65128C81.163 1.40282 77.4556 0.54906 72.0272 0.303897C66.5875 0.0581334 64.8508 0 51.0001 0ZM51.0001 9.09908C64.6176 9.09908 66.2306 9.1506 71.6084 9.39356C76.5808 9.61807 79.2812 10.4408 81.0783 11.1323C83.4589 12.0485 85.1578 13.1428 86.9424 14.91C88.7271 16.6771 89.8323 18.3593 90.7574 20.7165C91.4559 22.496 92.2867 25.17 92.5134 30.0937C92.7588 35.4187 92.8108 37.016 92.8108 50.5001C92.8108 63.984 92.7588 65.5813 92.5134 70.9063C92.2867 75.83 91.4559 78.504 90.7574 80.2835C89.8323 82.6407 88.7271 84.3229 86.9424 86.09C85.1578 87.8572 83.4589 88.9516 81.0783 89.8677C79.2812 90.5592 76.5808 91.3819 71.6084 91.6064C66.2315 91.8494 64.6186 91.9009 51.0001 91.9009C37.3814 91.9009 35.7688 91.8494 30.3916 91.6064C25.4192 91.3819 22.7188 90.5592 20.9217 89.8677C18.5411 88.9516 16.8422 87.8572 15.0577 86.09C13.2731 84.3229 12.1678 82.6407 11.2426 80.2835C10.5441 78.504 9.71331 75.83 9.48657 70.9063C9.24121 65.5813 9.18918 63.984 9.18918 50.5001C9.18918 37.016 9.24121 35.4187 9.48657 30.0937C9.71331 25.17 10.5441 22.496 11.2426 20.7165C12.1678 18.3593 13.2729 16.6771 15.0577 14.91C16.8422 13.1428 18.5411 12.0485 20.9217 11.1323C22.7188 10.4408 25.4192 9.61807 30.3916 9.39356C35.7694 9.1506 37.3825 9.09908 51.0001 9.09908Z" fill="white"/>
</svg>
