<svg width="102" height="102" viewBox="0 0 102 102" fill="none" xmlns="http://www.w3.org/2000/svg">
<path d="M94.0025 0.483644H7.49155C3.40287 0.437503 0.0499002 3.7127 0 7.80143V94.6731C0.0481917 98.7638 3.40089 102.042 7.49155 101.999H94.0025C98.1012 102.05 101.467 98.7719 101.524 94.6731V7.79516C101.465 3.69835 98.0993 0.423345 94.0025 0.476717" fill="white"/>
<path d="M71.4555 86.9806H86.4982L86.5045 60.4047C86.5045 47.358 83.6934 37.3294 68.447 37.3294C62.6185 37.113 57.1434 40.1201 54.1988 45.1549H53.9966V38.5344H39.5557V86.979H54.5984V63.0137C54.5984 56.6941 55.7971 50.5735 63.6318 50.5735C71.3552 50.5735 71.4555 57.8051 71.4555 63.4227V86.9806Z" fill="#3F3F6E"/>
<path d="M13.8516 23.1843C13.8524 28.0055 17.7614 31.9132 22.5826 31.9123C24.8978 31.9119 27.118 30.9918 28.7548 29.3544C30.3916 27.717 31.3109 25.4964 31.3104 23.1811C31.3096 18.3599 27.4006 14.4522 22.5794 14.4531C17.7583 14.4539 13.8507 18.363 13.8516 23.1843Z" fill="#3F3F6E"/>
<path d="M15.0456 86.9806H30.1039V38.5344H15.0456V86.9806Z" fill="#3F3F6E"/>
</svg>
