<svg width="383" height="34" viewBox="0 0 383 34" fill="none" xmlns="http://www.w3.org/2000/svg">
<mask id="mask0_203_270" style="mask-type:luminance" maskUnits="userSpaceOnUse" x="14" y="0" width="21" height="18">
<path d="M14.125 0H34.9071V17.8796H14.125V0Z" fill="white"/>
</mask>
<g mask="url(#mask0_203_270)">
<path d="M14.4119 9.31481L15.2023 8.52441C16.1352 7.59149 17.6339 7.48783 18.61 8.29406C19.1528 8.74469 19.4839 9.40119 19.5199 10.1009C19.5516 10.8049 19.2867 11.4888 18.7929 11.9826L18.2314 12.5412C18.7209 12.7269 19.1715 13.0148 19.5516 13.3949L19.5876 13.4295L23.482 17.3239C23.8217 17.6636 24.2882 17.8465 24.7662 17.822C25.2528 17.799 25.6919 17.5772 26 17.2015C26.5529 16.5335 26.4737 15.5055 25.8258 14.8533L24.3587 13.3906C24.245 13.2754 24.2133 13.1055 24.2724 12.9601C24.3357 12.809 24.4782 12.7139 24.6395 12.7139H31.946C32.3102 12.7139 32.6529 12.5599 32.8947 12.295C33.1438 12.0229 33.259 11.6745 33.223 11.3074C33.164 10.658 32.5708 10.1484 31.874 10.1484H26.9171C26.6954 10.1484 26.5212 9.97419 26.5212 9.75392C26.5212 9.5322 26.6954 9.358 26.9171 9.358H33.6261C34.333 9.358 34.9074 8.785 34.9074 8.07666C34.9074 7.36977 34.333 6.79677 33.6261 6.79677H26.9171C26.6954 6.79677 26.5212 6.61825 26.5212 6.40085C26.5212 6.34614 26.5341 6.29 26.5529 6.24249C26.6162 6.10428 26.7544 6.00494 26.9171 6.00494H31.946C32.6529 6.00494 33.2302 5.42762 33.2302 4.72504C33.2302 4.02103 32.6529 3.43939 31.946 3.43939H25.237C25.0196 3.43939 24.841 3.26519 24.841 3.04491C24.841 2.8232 25.0196 2.649 25.237 2.649H30.2702C30.6286 2.649 30.977 2.49927 31.2189 2.23004C31.4637 1.96082 31.5817 1.60953 31.5472 1.24097C31.4838 0.593103 30.8935 0.0877686 30.1982 0.0877686H22.3029C21.0345 0.0877686 19.8007 0.529756 18.8245 1.33599C18.3422 1.73191 17.7534 1.99681 17.1084 2.11487C16.8665 2.15806 16.6175 2.18253 16.3612 2.18253H14.2578C14.3572 2.42728 14.4119 2.69219 14.4119 2.96141V9.31481Z" fill="white"/>
</g>
<mask id="mask1_203_270" style="mask-type:luminance" maskUnits="userSpaceOnUse" x="0" y="0" width="19" height="21">
<path d="M0.90625 0H18.9155V20.8281H0.90625V0Z" fill="white"/>
</mask>
<g mask="url(#mask1_203_270)">
<path d="M3.08695 18.5462V20.6496C3.33314 20.5503 3.59804 20.4956 3.86583 20.4956H10.2192L9.42883 19.7037C8.4959 18.7708 8.39369 17.2735 9.19992 16.296C9.65054 15.7546 10.307 15.4221 11.0067 15.3875C11.7108 15.3602 12.3946 15.6207 12.8884 16.1146L13.4456 16.676C13.6313 16.1851 13.9207 15.7345 14.2993 15.3558L18.2297 11.4255C18.5695 11.0857 18.748 10.6192 18.7279 10.1412C18.7034 9.65463 18.4831 9.21552 18.1073 8.90742C17.4393 8.35746 16.4114 8.43232 15.7592 9.08163L14.2965 10.5487C14.1813 10.6624 14.0114 10.6941 13.8645 10.6351C13.7148 10.5717 13.6198 10.4292 13.6198 10.2679V2.96146C13.6198 2.59722 13.4657 2.25313 13.2008 2.0127C12.9273 1.76363 12.576 1.64846 12.2118 1.68445C11.5639 1.74348 11.0543 2.33663 11.0543 3.03201V7.99034C11.0543 8.21205 10.88 8.38481 10.6583 8.38481C10.4366 8.38481 10.2639 8.21205 10.2639 7.99034V1.28133C10.2639 0.573001 9.68942 0 8.98252 0C8.27419 0 7.70119 0.573001 7.70119 1.28133V7.99034C7.70119 8.21205 7.52411 8.38481 7.30671 8.38481C7.08788 8.38481 6.91079 8.21205 6.91079 7.99034V2.96146C6.91079 2.25313 6.33347 1.67581 5.62946 1.67581C4.92545 1.67581 4.34525 2.25313 4.34525 2.96146V9.67047C4.34525 9.88786 4.17105 10.0664 3.94933 10.0664C3.72762 10.0664 3.55485 9.88786 3.55485 9.67047V4.63727C3.55485 4.27735 3.40368 3.93038 3.13446 3.68851C2.89835 3.47112 2.59313 3.35738 2.27352 3.35738C2.23321 3.35738 2.19002 3.35738 2.14683 3.36026C1.49896 3.42361 0.992188 4.01244 0.992188 4.70926V12.6046C0.992188 13.8729 1.43562 15.1068 2.24185 16.0829C2.78749 16.7466 3.08695 17.6205 3.08695 18.5462Z" fill="white"/>
</g>
<mask id="mask2_203_270" style="mask-type:luminance" maskUnits="userSpaceOnUse" x="0" y="16" width="22" height="18">
<path d="M0.90625 16.0367H21.864V33.9999H0.90625V16.0367Z" fill="white"/>
</mask>
<g mask="url(#mask2_203_270)">
<path d="M21.4004 24.685L20.61 25.4769C19.6771 26.4098 18.1783 26.512 17.2022 25.7058C16.6609 25.2551 16.3283 24.5986 16.2923 23.8989C16.2607 23.1949 16.5256 22.5111 17.0208 22.0173L17.5809 21.4601C17.0914 21.2744 16.6407 20.985 16.2607 20.6064L12.3317 16.676C11.9919 16.3362 11.5212 16.1534 11.0461 16.1778C10.5609 16.2009 10.1218 16.4226 9.81367 16.7983C9.25939 17.4664 9.33857 18.4943 9.98644 19.1465L11.4535 20.6092C11.5687 20.7244 11.6003 20.8943 11.5413 21.0411C11.478 21.1909 11.3354 21.2859 11.1728 21.2859H3.86627C3.50347 21.2859 3.15938 21.4399 2.91751 21.7048C2.66844 21.9769 2.55471 22.3254 2.58926 22.6925C2.64973 23.3418 3.24288 23.8514 3.93826 23.8514H8.89515C9.11686 23.8514 9.29106 24.0256 9.29106 24.2474C9.29106 24.4676 9.11686 24.6418 8.89515 24.6418H2.18614C1.47925 24.6418 0.90625 25.2148 0.90625 25.9232C0.90625 26.6301 1.47925 27.2045 2.18614 27.2045H8.89515C9.11686 27.2045 9.29106 27.3816 9.29106 27.599C9.29106 27.8164 9.11686 27.9949 8.89515 27.9949H3.86627C3.15938 27.9949 2.58206 28.5722 2.58206 29.2762C2.58206 29.9788 3.15938 30.5604 3.86627 30.5604H10.5767C10.7941 30.5604 10.9712 30.7346 10.9712 30.9564C10.9712 31.1766 10.7941 31.3508 10.5767 31.3508H5.54352C5.1836 31.3508 4.83519 31.502 4.59476 31.7698C4.34857 32.039 4.23052 32.3903 4.26651 32.7589C4.32986 33.4067 4.91869 33.9135 5.61407 33.9135H13.5094C14.7792 33.9135 16.0116 33.4701 16.9891 32.6638C17.6528 32.1182 18.5267 31.8173 19.451 31.8173H21.5544C21.4565 31.5726 21.4004 31.3076 21.4004 31.0384V24.685Z" fill="white"/>
</g>
<mask id="mask3_203_270" style="mask-type:luminance" maskUnits="userSpaceOnUse" x="17" y="13" width="18" height="21">
<path d="M17.0742 13.0883H34.9078V34H17.0742V13.0883Z" fill="white"/>
</mask>
<g mask="url(#mask3_203_270)">
<path d="M32.7243 15.4537V13.3517C32.4795 13.4496 32.2146 13.5058 31.9454 13.5058H25.592L26.3824 14.2962C27.3153 15.2291 27.419 16.7278 26.6113 17.704C26.4659 17.881 26.296 18.0322 26.1103 18.1618C25.7259 18.4267 25.2753 18.5894 24.8059 18.6138H24.6864C24.0271 18.6138 23.3893 18.3518 22.9228 17.8854L22.3656 17.3239C22.1799 17.8148 21.892 18.2654 21.5119 18.6441L17.5815 22.5745C17.2417 22.9142 17.0647 23.3807 17.0834 23.8601C17.1079 24.3453 17.3296 24.7844 17.7053 25.0925C18.3733 25.6468 19.4013 25.5676 20.0535 24.9183L21.5162 23.4527C21.6299 23.3375 21.8013 23.3058 21.9467 23.3649C22.0964 23.4282 22.1914 23.5707 22.1914 23.7334V31.0385C22.1914 31.4027 22.3455 31.7468 22.6104 31.9872C22.8839 32.2363 23.2323 32.3515 23.5995 32.3155C24.2473 32.2564 24.7584 31.6633 24.7584 30.9679V26.0096C24.7584 25.7893 24.9312 25.6151 25.1529 25.6151C25.3746 25.6151 25.5488 25.7893 25.5488 26.0096V32.7186C25.5488 33.4269 26.1218 33.9999 26.8301 33.9999C27.537 33.9999 28.11 33.4269 28.11 32.7186V26.0096C28.11 25.8325 28.2295 25.6857 28.3908 25.6338C28.4311 25.6266 28.4656 25.6151 28.506 25.6151C28.7234 25.6151 28.9004 25.7893 28.9004 26.0096V31.0385C28.9004 31.7468 29.4778 32.3241 30.1818 32.3241C30.8858 32.3241 31.4674 31.7468 31.4674 31.0385V24.3295C31.4674 24.1121 31.6402 23.935 31.8619 23.935C32.0836 23.935 32.2578 24.1121 32.2578 24.3295V29.3626C32.2578 29.7226 32.4075 30.071 32.6768 30.3114C32.946 30.5562 33.2973 30.6757 33.6644 30.6397C34.3137 30.5763 34.819 29.9875 34.819 29.2921V21.3968C34.819 20.127 34.3771 18.8932 33.5708 17.917C33.0252 17.2533 32.7243 16.3794 32.7243 15.4537Z" fill="white"/>
</g>
<mask id="mask4_203_270" style="mask-type:luminance" maskUnits="userSpaceOnUse" x="203" y="0" width="15" height="14">
<path d="M203.398 0.152283H217.787V13.7523H203.398V0.152283Z" fill="white"/>
</mask>
<g mask="url(#mask4_203_270)">
<path d="M207.037 0.354187L203.473 3.92064L204.096 4.54397C204.097 4.54397 204.097 4.54397 204.097 4.54515L212.183 12.6379C212.709 13.1632 213.409 13.4524 214.149 13.4524C214.891 13.4524 215.591 13.1632 216.115 12.6367L217.713 11.037L207.037 0.354187Z" fill="white"/>
</g>
<path d="M205.149 20.9762L204.499 20.3245L203.847 19.674L202.248 18.0732C201.991 17.8135 201.647 17.673 201.282 17.673C200.918 17.673 200.575 17.8135 200.317 18.0732C199.785 18.6044 199.785 19.4721 200.317 20.0046L201.917 21.6054L202.568 22.2571L203.218 22.9087L204.219 23.9087C204.476 24.1672 204.82 24.3089 205.184 24.3089C205.55 24.3089 205.892 24.1672 206.15 23.9087C206.682 23.3774 206.682 22.5109 206.15 21.9773L205.149 20.9762Z" fill="white"/>
<path d="M201.918 24.2096L201.267 23.558L200.618 22.9075L199.017 21.3055C198.759 21.0481 198.417 20.9053 198.05 20.9053C197.687 20.9053 197.344 21.0481 197.086 21.3055C196.555 21.8379 196.555 22.7044 197.086 23.2369L198.688 24.8389L199.338 25.4905L199.988 26.141L200.989 27.141C201.246 27.3995 201.591 27.5412 201.954 27.5412C202.319 27.5412 202.662 27.4007 202.92 27.141C203.451 26.6097 203.45 25.7432 202.92 25.2108L201.918 24.2096Z" fill="white"/>
<path d="M199.689 28.4432L198.687 27.4409L198.038 26.7904L197.387 26.1399L195.786 24.5379C195.53 24.2805 195.186 24.1377 194.821 24.1377C194.457 24.1377 194.113 24.2794 193.856 24.5379C193.598 24.7953 193.457 25.1388 193.457 25.5036C193.457 25.8672 193.597 26.2096 193.856 26.4693L195.456 28.0713L196.107 28.7218L196.756 29.3723L197.758 30.3746C198.016 30.6343 198.358 30.776 198.724 30.776C199.088 30.776 199.432 30.6343 199.689 30.3746C199.947 30.1172 200.089 29.7737 200.089 29.4089C200.089 29.0441 199.947 28.7017 199.689 28.4444C199.69 28.4444 199.69 28.4444 199.689 28.4432Z" fill="white"/>
<mask id="mask5_203_270" style="mask-type:luminance" maskUnits="userSpaceOnUse" x="190" y="27" width="8" height="7">
<path d="M190.156 27.3523H197.08V34H190.156V27.3523Z" fill="white"/>
</mask>
<g mask="url(#mask5_203_270)">
<path d="M195.459 30.6745L194.81 30.0228L194.16 29.3735L192.56 27.7703C192.3 27.5141 191.958 27.3701 191.593 27.3701C191.23 27.3701 190.888 27.5118 190.629 27.7703C190.098 28.3028 190.098 29.1705 190.629 29.7029L192.229 31.3037L193.53 32.6071L194.532 33.6082C194.788 33.8655 195.131 34.0072 195.496 34.0072C195.862 34.0072 196.205 33.8667 196.461 33.6082C196.993 33.0757 196.993 32.208 196.461 31.6756L195.459 30.6745Z" fill="white"/>
</g>
<path d="M200.751 7.39618C199.591 7.39618 198.502 6.94403 197.684 6.12355C197.211 5.6525 196.583 5.3916 195.917 5.3916C195.248 5.3916 194.621 5.6525 194.148 6.12473L193.53 6.74452L200.291 13.5115C200.464 13.6838 200.561 13.9199 200.561 14.1643C200.561 14.4099 200.461 14.6436 200.288 14.8171L198.272 16.8087C197.452 17.6151 196.369 18.0613 195.218 18.0613C194.058 18.0613 192.966 17.6092 192.146 16.7875L189.298 13.9376C188.897 13.5374 188.366 13.3178 187.801 13.3178C187.355 13.3178 186.92 13.4642 186.561 13.7216L179.964 20.3221L179.963 20.3232L178.662 21.6266C178.128 22.1578 178.128 23.0244 178.662 23.558C178.92 23.8141 179.262 23.957 179.626 23.957C179.992 23.957 180.334 23.8153 180.592 23.558C180.951 23.1979 181.532 23.1979 181.892 23.558C182.072 23.7374 182.161 23.9723 182.161 24.2073C182.161 24.4434 182.072 24.6795 181.892 24.8589C181.36 25.3914 181.36 26.2579 181.892 26.7903C182.151 27.0477 182.493 27.1917 182.858 27.1917C183.222 27.1917 183.564 27.0489 183.822 26.7903C184.182 26.4314 184.764 26.4314 185.122 26.7903C185.302 26.9698 185.392 27.2059 185.392 27.442C185.392 27.6781 185.302 27.9119 185.122 28.0925C184.865 28.3498 184.722 28.6934 184.722 29.0593C184.722 29.4241 184.865 29.7677 185.122 30.025C185.381 30.2824 185.723 30.4253 186.088 30.4253C186.452 30.4253 186.794 30.2824 187.053 30.025C187.413 29.6662 187.994 29.6662 188.353 30.025C188.533 30.2045 188.623 30.4394 188.623 30.6743C188.623 30.9116 188.533 31.1466 188.353 31.326C187.821 31.8584 187.821 32.725 188.353 33.2586C188.611 33.5171 188.953 33.6588 189.318 33.6588C189.683 33.6588 190.026 33.5171 190.284 33.2586L190.932 32.6093L189.331 31.0073C188.082 29.7571 188.082 27.723 189.331 26.4728C189.935 25.8671 190.739 25.5342 191.596 25.5342C191.605 25.5342 191.614 25.5354 191.625 25.5354C191.625 25.5236 191.624 25.5177 191.624 25.5071C191.624 24.65 191.955 23.8437 192.561 23.2392C193.165 22.636 193.971 22.3007 194.827 22.3007C194.837 22.3007 194.845 22.3019 194.856 22.3019C194.849 21.4707 195.159 20.6385 195.792 20.0069C196.398 19.4001 197.201 19.0683 198.057 19.0683C198.066 19.0683 198.075 19.0695 198.086 19.0695C198.078 18.2396 198.389 17.4049 199.022 16.7745C199.628 16.1677 200.432 15.8348 201.287 15.8348C202.143 15.8348 202.947 16.1677 203.551 16.7745L205.151 18.3753L210.233 13.2895L203.423 6.47417C202.664 7.07153 201.731 7.39618 200.751 7.39618Z" fill="white"/>
<path d="M184.989 12.6449C185.099 12.534 185.217 12.4313 185.342 12.3356C185.954 11.8504 186.704 11.5553 187.484 11.4927C187.585 11.4845 187.687 11.4762 187.789 11.4762C188.098 11.4762 188.399 11.5152 188.693 11.5824C189.408 11.7477 190.063 12.1054 190.592 12.6355L193.441 15.4865C193.915 15.9599 194.544 16.222 195.213 16.222C195.876 16.222 196.502 15.9647 196.974 15.4983L198.331 14.1561L192.226 8.04551L191.575 7.3962L190.925 6.74454L189.953 5.77176C189.481 5.29836 188.853 5.03864 188.186 5.03864C187.518 5.03864 186.89 5.29836 186.419 5.77176C185.599 6.59106 184.51 7.04204 183.351 7.04204C182.37 7.04204 181.438 6.71856 180.678 6.1212L173.871 12.9342L179.304 18.3718L184.989 12.6449Z" fill="white"/>
<mask id="mask6_203_270" style="mask-type:luminance" maskUnits="userSpaceOnUse" x="166" y="0" width="15" height="14">
<path d="M166.375 0H180.824V13.1478H166.375V0Z" fill="white"/>
</mask>
<g mask="url(#mask6_203_270)">
<path d="M180.008 4.19215L180.633 3.56645L177.069 0L166.391 10.6852L167.989 12.2848C168.514 12.809 169.211 13.0994 169.955 13.0994C170.697 13.0994 171.396 12.8102 171.921 12.286L180.007 4.19215H180.008Z" fill="white"/>
</g>
<path d="M279.305 8.92491C279.841 8.73136 281.245 7.73544 281.84 7.96184L287.758 9.4434L281.359 0.467258C280.895 -0.220147 279.772 -0.132168 279.425 0.619754L276.621 6.23864L278.152 8.34777L279.305 8.92491Z" fill="white"/>
<mask id="mask7_203_270" style="mask-type:luminance" maskUnits="userSpaceOnUse" x="254" y="16" width="39" height="18">
<path d="M254.121 16.4406H292.982V33.9999H254.121V16.4406Z" fill="white"/>
</mask>
<g mask="url(#mask7_203_270)">
<path d="M292.665 32.198L281.327 16.5766L278.974 18.9344C278.666 19.2429 278.215 19.3344 277.809 19.2066L274.776 18.1872L271.744 19.2066C271.506 19.2863 271.258 19.2863 271.02 19.2066L265.414 17.3391L254.627 32.2004C254.085 32.9101 254.646 34.0139 255.541 33.9998H291.748C292.385 34.0491 293.298 33.2139 292.665 32.198Z" fill="white"/>
</g>
<path d="M274.558 7.2616C274.131 6.69267 273.152 6.67742 272.729 7.2616L266.812 15.4107L271.379 16.9404L274.412 15.9198C274.889 15.636 277.163 16.6706 277.863 16.8383L279.969 14.7186C279.125 13.5597 274.558 7.2616 274.558 7.2616Z" fill="white"/>
<mask id="mask8_203_270" style="mask-type:luminance" maskUnits="userSpaceOnUse" x="280" y="10" width="25" height="24">
<path d="M280.035 10.1343H304.436V33.9999H280.035V10.1343Z" fill="white"/>
</mask>
<g mask="url(#mask8_203_270)">
<path d="M289.785 12.287L281.705 10.2635L280.109 11.0565C281.745 13.297 292.604 28.265 294.49 30.8598C295.161 31.7818 295.325 32.9502 294.949 34.0001H303.068C303.957 34.0259 304.533 32.9197 303.988 32.2076L289.785 12.287Z" fill="white"/>
</g>
<mask id="mask9_203_270" style="mask-type:luminance" maskUnits="userSpaceOnUse" x="101" y="0" width="7" height="6">
<path d="M101.648 0H107.693V5.86293H101.648V0Z" fill="white"/>
</mask>
<g mask="url(#mask9_203_270)">
<path d="M107.522 2.83333C107.522 3.01927 107.504 3.20373 107.468 3.38524C107.432 3.56822 107.378 3.74531 107.307 3.91796C107.236 4.08914 107.149 4.25295 107.045 4.40789C106.942 4.56137 106.824 4.70451 106.693 4.83732C106.561 4.96866 106.418 5.08524 106.263 5.18853C106.108 5.29183 105.945 5.3789 105.773 5.45121C105.602 5.52204 105.424 5.57517 105.242 5.61206C105.059 5.64895 104.875 5.66666 104.689 5.66666C104.503 5.66666 104.318 5.64895 104.137 5.61206C103.954 5.57517 103.777 5.52204 103.604 5.45121C103.433 5.3789 103.269 5.29183 103.116 5.18853C102.961 5.08524 102.818 4.96866 102.686 4.83732C102.553 4.70451 102.437 4.56137 102.334 4.40789C102.23 4.25295 102.143 4.08914 102.071 3.91796C102 3.74531 101.947 3.56822 101.91 3.38524C101.875 3.20373 101.855 3.01927 101.855 2.83333C101.855 2.64739 101.875 2.46293 101.91 2.27994C101.947 2.09843 102 1.92135 102.071 1.7487C102.143 1.57752 102.23 1.41371 102.334 1.25877C102.437 1.10382 102.553 0.960676 102.686 0.829339C102.818 0.698003 102.961 0.581423 103.116 0.476649C103.269 0.37335 103.433 0.286284 103.604 0.215451C103.777 0.144618 103.954 0.0900172 104.137 0.0546006C104.318 0.0177084 104.503 0 104.689 0C104.875 0 105.059 0.0177084 105.242 0.0546006C105.424 0.0900172 105.602 0.144618 105.773 0.215451C105.945 0.286284 106.108 0.37335 106.263 0.476649C106.418 0.581423 106.561 0.698003 106.693 0.829339C106.824 0.960676 106.942 1.10382 107.045 1.25877C107.149 1.41371 107.236 1.57752 107.307 1.7487C107.378 1.92135 107.432 2.09843 107.468 2.27994C107.504 2.46293 107.522 2.64739 107.522 2.83333Z" fill="white"/>
</g>
<mask id="mask10_203_270" style="mask-type:luminance" maskUnits="userSpaceOnUse" x="97" y="28" width="16" height="6">
<path d="M97.1133 28.1519H112.224V34H97.1133V28.1519Z" fill="white"/>
</mask>
<g mask="url(#mask10_203_270)">
<path d="M98.4576 28.3334L97.3242 34H112.058L110.924 28.3334H98.4576Z" fill="white"/>
</g>
<path d="M92.2232 14.1666H93.3565V7.17771L101.29 8.49993V27.1999H104.123V16.9999H105.256V27.1999H108.09V8.49993L116.023 7.17771V14.4499H117.156V6.98882L118.29 6.79993V4.53326L104.69 5.6666L91.0898 4.53326V6.79993L92.2232 6.98882V14.1666Z" fill="white"/>
<mask id="mask11_203_270" style="mask-type:luminance" maskUnits="userSpaceOnUse" x="111" y="14" width="11" height="11">
<path d="M111.469 14.9296H121.688V24.374H111.469V14.9296Z" fill="white"/>
</mask>
<g mask="url(#mask11_203_270)">
<path d="M116.584 16.9409C115.43 14.4913 111.484 14.7835 111.484 17.8204C111.484 20.729 115.5 23.6376 116.584 24.3666C117.669 23.6376 121.684 20.729 121.684 17.8204C121.684 14.7835 117.738 14.4913 116.584 16.9409Z" fill="white"/>
</g>
<mask id="mask12_203_270" style="mask-type:luminance" maskUnits="userSpaceOnUse" x="88" y="15" width="10" height="10">
<path d="M88.5391 15.3H97.6057V24.3666H88.5391V15.3Z" fill="white"/>
</mask>
<g mask="url(#mask12_203_270)">
<path d="M95.529 22.29C95.4509 22.3681 95.3482 22.4073 95.2457 22.4073C95.1433 22.4073 95.0408 22.3681 94.9624 22.29L93.9431 21.2704C93.5775 21.5201 93.1516 21.6454 92.7258 21.6454C92.1727 21.6454 91.6198 21.435 91.1987 21.0139C90.3567 20.1719 90.3567 18.8016 91.1987 17.9596C92.0407 17.1176 93.411 17.1176 94.2529 17.9596C94.9983 18.705 95.0833 19.8637 94.5095 20.704L95.529 21.7236C95.6853 21.8799 95.6853 22.1334 95.529 22.29ZM93.0724 15.3C90.5688 15.3 88.5391 17.3297 88.5391 19.8333C88.5391 22.3369 90.5688 24.3666 93.0724 24.3666C95.576 24.3666 97.6057 22.3369 97.6057 19.8333C97.6057 17.3297 95.576 15.3 93.0724 15.3Z" fill="white"/>
</g>
<path d="M92.7275 17.9935C92.345 17.9935 91.9622 18.1391 91.6712 18.4304C91.0888 19.0128 91.0888 19.9606 91.6712 20.5433C92.2536 21.1257 93.2013 21.1257 93.784 20.5433C94.3664 19.9606 94.3664 19.0128 93.784 18.4304C93.4927 18.1391 93.1102 17.9935 92.7275 17.9935Z" fill="white"/>
<path d="M359.929 15.7861C359.258 15.7861 358.715 15.2437 358.715 14.5721V12.143C358.715 11.4715 359.258 10.9291 359.929 10.9291C360.599 10.9291 361.143 11.4715 361.143 12.143V14.5721C361.143 15.2437 360.599 15.7861 359.929 15.7861Z" fill="white"/>
<path d="M366 10.929V9.71508C366 9.0435 366.545 8.5 367.215 8.5C367.884 8.5 368.429 9.0435 368.429 9.71508V10.929C368.429 11.6006 367.884 12.143 367.215 12.143C366.545 12.143 366 11.6006 366 10.929Z" fill="white"/>
<path d="M370.855 12.143C370.185 12.143 369.641 11.6006 369.641 10.929V9.71508C369.641 9.0435 370.185 8.5 370.855 8.5C371.525 8.5 372.07 9.0435 372.07 9.71508V10.929C372.07 11.6006 371.525 12.143 370.855 12.143Z" fill="white"/>
<mask id="mask13_203_270" style="mask-type:luminance" maskUnits="userSpaceOnUse" x="358" y="13" width="16" height="21">
<path d="M358.578 13.1443H373.404V34H358.578V13.1443Z" fill="white"/>
</mask>
<g mask="url(#mask13_203_270)">
<path d="M361.143 33.9999V24.286C359.657 22.7991 358.715 20.643 358.715 16.9999V16.6625C359.072 16.8719 359.484 16.9999 359.929 16.9999C360.657 16.9999 361.304 16.6714 361.75 16.1613C362.195 16.6714 362.843 16.9999 363.572 16.9999C364.223 16.9999 364.814 16.7393 365.251 16.3195C365.872 17.4432 367.054 18.215 368.429 18.215H369.643V16.9999H368.429C367.087 16.9999 366 15.9129 366 14.572V13.965C366 13.6298 366.273 13.3569 366.607 13.3569H370.857C372.199 13.3569 373.286 14.4439 373.286 15.786V16.9999C373.286 20.643 372.309 22.8203 369.643 24.286V33.9999H361.143Z" fill="white"/>
</g>
<path d="M363.571 15.786C362.9 15.786 362.355 15.2436 362.355 14.572V10.929C362.355 10.2574 362.9 9.71503 363.571 9.71503C364.241 9.71503 364.785 10.2574 364.785 10.929V14.572C364.785 15.2436 364.241 15.786 363.571 15.786Z" fill="white"/>
<mask id="mask14_203_270" style="mask-type:luminance" maskUnits="userSpaceOnUse" x="364" y="0" width="4" height="4">
<path d="M364.852 0H367.132V3.73545H364.852V0Z" fill="white"/>
</mask>
<g mask="url(#mask14_203_270)">
<path d="M365.454 0H366.547C366.748 0 366.911 0.162605 366.911 0.36419V3.27882C366.911 3.48041 366.748 3.64301 366.547 3.64301H365.454C365.252 3.64301 365.09 3.48041 365.09 3.27882V0.36419C365.09 0.162605 365.252 0 365.454 0Z" fill="white"/>
</g>
<path d="M357.025 2.55158L357.971 2.00474C358.146 1.9045 358.37 1.96353 358.471 2.13727L359.928 4.6621C360.028 4.83584 359.969 5.05858 359.794 5.15993L358.849 5.70566C358.674 5.80701 358.45 5.74576 358.35 5.57313L356.892 3.0483C356.793 2.87456 356.852 2.6507 357.025 2.55158Z" fill="white"/>
<path d="M351.006 8.97334L351.553 8.02778C351.652 7.85292 351.876 7.7939 352.049 7.89302L354.573 9.34978C354.746 9.45113 354.807 9.67276 354.707 9.84761L354.16 10.7943C354.059 10.968 353.837 11.0282 353.662 10.9279L351.138 9.47117C350.965 9.37094 350.906 9.14708 351.006 8.97334Z" fill="white"/>
<path d="M379.952 26.1069L377.428 24.6501C377.255 24.5499 377.194 24.3271 377.295 24.1523L377.841 23.2067C377.942 23.033 378.164 22.9717 378.339 23.0731L380.862 24.5298C381.036 24.6312 381.097 24.8528 380.996 25.0277L380.45 25.9732C380.348 26.147 380.126 26.2071 379.952 26.1069Z" fill="white"/>
<path d="M375.106 3.04822L373.649 5.57082C373.549 5.74456 373.327 5.80581 373.152 5.70446L372.206 5.15874C372.032 5.05739 371.971 4.83575 372.072 4.6609L373.529 2.13719C373.631 1.96344 373.852 1.9033 374.027 2.00354L374.974 2.55038C375.146 2.65061 375.206 2.87447 375.106 3.04822Z" fill="white"/>
<path d="M380.863 9.47108L378.34 10.929C378.166 11.0292 377.942 10.9702 377.842 10.7953L377.295 9.84975C377.195 9.67601 377.254 9.45215 377.429 9.35191L379.952 7.89404C380.126 7.7938 380.349 7.85283 380.45 8.02769L380.996 8.97324C381.097 9.14699 381.037 9.37085 380.863 9.47108Z" fill="white"/>
<path d="M351.553 25.9733L351.006 25.0277C350.906 24.854 350.965 24.6312 351.139 24.5299L353.663 23.072C353.837 22.9707 354.06 23.0308 354.161 23.2057L354.708 24.1512C354.808 24.325 354.749 24.5477 354.574 24.6491L352.049 26.1069C351.876 26.2072 351.652 26.147 351.553 25.9733Z" fill="white"/>
<mask id="mask15_203_270" style="mask-type:luminance" maskUnits="userSpaceOnUse" x="349" y="15" width="4" height="3">
<path d="M349 15.9954H352.877V17.9912H349V15.9954Z" fill="white"/>
</mask>
<g mask="url(#mask15_203_270)">
<path d="M349 17.5467V16.4542C349 16.2526 349.163 16.09 349.364 16.09H352.279C352.48 16.09 352.643 16.2526 352.643 16.4542V17.5467C352.643 17.7483 352.48 17.9109 352.279 17.9109H349.364C349.163 17.9109 349 17.7483 349 17.5467Z" fill="white"/>
</g>
<mask id="mask16_203_270" style="mask-type:luminance" maskUnits="userSpaceOnUse" x="379" y="15" width="4" height="3">
<path d="M379.109 15.9954H383.002V17.9912H379.109V15.9954Z" fill="white"/>
</mask>
<g mask="url(#mask16_203_270)">
<path d="M382.638 17.9111H379.725C379.523 17.9111 379.359 17.7485 379.359 17.5469V16.4543C379.359 16.2528 379.523 16.0901 379.725 16.0901H382.638C382.84 16.0901 383.002 16.2528 383.002 16.4543V17.5469C383.002 17.7485 382.84 17.9111 382.638 17.9111Z" fill="white"/>
</g>
</svg>
