<svg width="125" height="102" viewBox="0 0 125 102" fill="none" xmlns="http://www.w3.org/2000/svg">
<path d="M121.359 12.1745C119.414 13.0371 117.415 13.7652 115.371 14.3563C117.79 11.6205 119.635 8.40148 120.761 4.8789C121.013 4.08931 120.752 3.22504 120.103 2.70864C119.454 2.19183 118.554 2.12993 117.84 2.55288C113.501 5.12652 108.819 6.97607 103.91 8.05761C98.9654 3.22584 92.2494 0.476074 85.3065 0.476074C70.651 0.476074 58.7278 12.3989 58.7278 27.054C58.7278 28.2082 58.8008 29.356 58.9454 30.4879C40.7594 28.8912 23.8522 19.9525 12.2421 5.71082C11.8283 5.2032 11.1909 4.92962 10.5383 4.98194C9.88529 5.03306 9.2986 5.4013 8.9687 5.96723C6.61393 10.0078 5.36904 14.6291 5.36904 19.3311C5.36904 25.7352 7.65552 31.8115 11.6945 36.5594C10.4664 36.134 9.27463 35.6024 8.13718 34.971C7.52652 34.6311 6.78127 34.6363 6.1746 34.9842C5.56754 35.332 5.18692 35.9719 5.17095 36.6712C5.16815 36.789 5.16815 36.9068 5.16815 37.0262C5.16815 46.5855 10.313 55.1919 18.1789 59.8827C17.5032 59.8152 16.8278 59.7173 16.1568 59.5891C15.4651 59.4569 14.7538 59.6994 14.2873 60.2269C13.82 60.7541 13.6655 61.489 13.8807 62.16C16.7923 71.25 24.2883 77.9361 33.3504 79.9746C25.8344 84.6821 17.2392 87.1479 8.21626 87.1479C6.33356 87.1479 4.44007 87.0373 2.58692 86.818C1.66634 86.7086 0.786091 87.2522 0.472573 88.1276C0.159056 89.0035 0.491345 89.98 1.27454 90.482C12.8659 97.9142 26.2689 101.843 40.0337 101.843C67.0937 101.843 84.0216 89.0822 93.4571 78.3774C105.223 65.0296 111.971 47.3619 111.971 29.9052C111.971 29.1759 111.96 28.4395 111.937 27.7054C116.58 24.208 120.576 19.9753 123.828 15.1104C124.322 14.3715 124.269 13.395 123.697 12.7148C123.125 12.0343 122.173 11.8142 121.359 12.1745Z" fill="white"/>
</svg>
