<svg width="102" height="101" viewBox="0 0 102 101" fill="none" xmlns="http://www.w3.org/2000/svg">
<path fill-rule="evenodd" clip-rule="evenodd" d="M90.8508 17.2995C95.2395 18.4609 98.6953 21.8837 99.8682 26.2285C102 34.1058 102 50.5388 102 50.5388C102 50.5388 102 66.9727 99.8682 74.8492C98.6953 79.1939 95.2395 82.6176 90.8508 83.7782C82.8964 85.889 50.9996 85.889 50.9996 85.889C50.9996 85.889 19.1036 85.889 11.1492 83.7782C6.76054 82.6176 3.3047 79.1939 2.13177 74.8492C0 66.9727 0 50.5388 0 50.5388C0 50.5388 0 34.1058 2.13177 26.2285C3.3047 21.8837 6.76054 18.4609 11.1492 17.2995C19.1036 15.1895 50.9996 15.1895 50.9996 15.1895C50.9996 15.1895 82.8964 15.1895 90.8508 17.2995ZM67.299 50.5397L40.8 65.6891V35.3886L67.299 50.5397Z" fill="white"/>
</svg>
